<?xml version="1.0" standalone="no"?>
<!DOCTYPE svg PUBLIC "-//W3C//DTD SVG 20010904//EN"
 "http://www.w3.org/TR/2001/REC-SVG-20010904/DTD/svg10.dtd">
<svg version="1.0" xmlns="http://www.w3.org/2000/svg"
 width="512.000000pt" height="512.000000pt" viewBox="0 0 512.000000 512.000000"
 preserveAspectRatio="xMidYMid meet">
<metadata>
Created by potrace 1.11, written by Peter Selinger 2001-2013
</metadata>
<g transform="translate(0.000000,512.000000) scale(0.100000,-0.100000)"
fill="#000000" stroke="none">
<path d="M2318 5105 c-1 -1 -34 -6 -73 -9 -38 -4 -79 -10 -90 -13 -11 -3 -31
-7 -45 -8 -22 -3 -107 -22 -240 -55 -24 -6 -50 -16 -57 -22 -7 -6 -13 -8 -13
-5 0 3 -27 -5 -60 -18 -33 -13 -60 -21 -60 -19 0 3 -7 -2 -16 -11 -13 -13 -14
-21 -6 -38 5 -12 22 -51 36 -87 15 -36 31 -73 37 -82 5 -10 9 -22 9 -28 0 -5
11 -33 24 -62 32 -72 96 -224 96 -230 0 -3 12 -32 27 -64 15 -33 27 -61 28
-64 1 -3 7 -18 13 -33 7 -16 12 -30 12 -31 0 -2 10 -25 22 -52 12 -27 23 -53
24 -59 1 -5 12 -32 24 -60 12 -27 25 -59 30 -70 4 -11 17 -41 29 -67 11 -26
26 -65 33 -87 7 -23 16 -41 20 -41 5 0 8 -7 8 -15 0 -9 8 -30 17 -48 9 -18 18
-35 19 -39 1 -5 3 -10 4 -13 1 -3 3 -8 4 -12 1 -5 10 -25 19 -47 9 -21 17 -40
17 -42 0 -2 9 -26 21 -52 12 -26 24 -56 29 -67 4 -11 12 -31 18 -45 6 -14 23
-54 38 -90 14 -36 31 -76 37 -90 6 -14 10 -28 9 -32 -1 -5 2 -8 6 -8 5 0 9 -6
9 -12 1 -14 85 -218 99 -240 5 -7 9 -17 10 -23 2 -8 13 -38 30 -75 1 -3 5 -15
9 -27 4 -13 11 -23 15 -23 10 0 28 22 29 35 0 6 12 35 27 65 15 30 37 75 48
100 12 25 26 48 31 52 6 4 7 8 3 8 -4 0 8 30 26 68 18 37 50 103 71 147 21 44
42 83 48 86 5 3 8 10 7 15 -1 12 32 88 43 95 5 3 8 8 6 10 -2 5 25 65 106 234
97 200 149 309 150 315 2 6 57 123 155 325 103 214 150 315 150 326 0 5 5 9
10 9 6 0 10 8 10 18 0 10 5 23 12 30 7 7 8 12 3 12 -6 0 -5 4 1 8 12 8 50 89
60 125 5 23 2 27 -23 33 -15 4 -32 10 -38 14 -22 15 -272 105 -320 114 -11 3
-42 10 -70 16 -27 7 -63 14 -80 17 -43 8 -60 11 -60 13 0 1 -18 4 -40 6 -22 2
-71 8 -110 13 -62 9 -468 15 -477 6z"/>
<path d="M3738 4572 c-12 -26 -21 -50 -20 -54 1 -5 -2 -8 -8 -8 -5 0 -10 -4
-10 -10 0 -5 -36 -85 -81 -177 -92 -192 -103 -215 -101 -225 1 -5 -3 -8 -10
-8 -6 0 -8 -3 -5 -6 4 -4 -2 -19 -13 -34 -11 -16 -20 -31 -20 -34 0 -3 -21
-50 -46 -104 -89 -186 -147 -308 -199 -417 -29 -60 -72 -150 -95 -200 -23 -49
-64 -135 -90 -190 -81 -170 -122 -260 -122 -265 0 -3 -6 -12 -14 -21 -8 -9
-16 -26 -19 -37 -2 -11 -15 -41 -29 -66 -14 -25 -22 -46 -18 -46 4 0 3 -4 -3
-8 -16 -11 -74 -134 -69 -146 4 -12 678 -349 690 -346 4 1 10 -2 13 -8 7 -11
223 -117 234 -114 4 1 7 -1 7 -6 0 -4 15 -13 33 -21 17 -8 250 -122 517 -254
267 -132 487 -241 490 -242 3 0 28 -13 55 -27 42 -21 52 -23 63 -12 6 7 12 16
12 20 0 3 19 47 41 98 45 99 109 288 129 376 6 30 14 62 17 70 3 8 7 29 8 45
2 17 4 30 5 30 1 0 3 16 4 35 1 20 6 42 11 50 5 8 11 114 13 237 4 199 -3 326
-25 448 -3 17 -6 42 -8 56 -1 14 -7 34 -13 46 -6 11 -9 22 -7 25 3 2 -7 45
-21 94 -15 49 -27 95 -27 102 0 6 -4 12 -9 12 -5 0 -7 4 -4 8 3 5 -1 20 -9 35
-8 15 -12 27 -9 27 2 0 -3 14 -12 31 -8 17 -17 39 -19 49 -4 19 -94 203 -133
271 -11 20 -26 47 -34 60 -7 13 -19 29 -25 37 -7 7 -13 17 -13 22 0 5 -6 15
-12 22 -7 7 -33 42 -57 78 -25 36 -47 67 -51 70 -3 3 -25 30 -50 60 -64 77
-192 204 -285 283 -86 73 -83 71 -135 107 -19 13 -37 27 -40 30 -10 10 -69 50
-75 50 -4 0 -26 13 -50 30 -38 26 -163 94 -207 112 -14 6 -22 -2 -40 -40z"/>
<path d="M1310 4407 c-80 -40 -160 -83 -178 -95 -17 -13 -32 -20 -32 -17 0 4
-7 -1 -16 -9 -8 -9 -41 -32 -72 -53 -31 -21 -62 -44 -69 -53 -7 -8 -13 -12
-13 -7 0 4 -8 -1 -18 -10 -10 -10 -43 -38 -73 -62 -48 -40 -268 -258 -294
-293 -6 -7 -34 -43 -63 -80 -28 -37 -52 -72 -52 -78 0 -5 -3 -10 -8 -10 -4 0
-16 -16 -26 -35 -11 -19 -23 -35 -28 -35 -4 0 -8 -6 -8 -14 0 -8 -6 -21 -13
-28 -6 -7 -25 -38 -41 -68 -16 -30 -36 -63 -44 -72 -8 -10 -12 -18 -8 -18 3 0
-1 -11 -10 -25 -9 -14 -12 -25 -8 -25 5 0 4 -4 -2 -8 -10 -6 -43 -72 -43 -87
0 -3 -7 -18 -15 -33 -15 -29 -67 -178 -71 -202 -1 -8 -5 -22 -8 -30 -10 -27
-26 -84 -32 -112 -6 -31 -12 -64 -21 -105 -3 -16 -7 -41 -9 -58 -2 -16 -9 -61
-14 -100 -20 -146 -8 -529 19 -618 6 -20 5 -25 -3 -20 -7 4 -6 -1 2 -10 7 -9
11 -17 8 -17 -3 0 0 -19 5 -42 5 -24 11 -52 13 -63 7 -32 46 -178 55 -200 4
-11 22 -58 40 -105 17 -47 43 -110 58 -140 14 -30 26 -57 27 -60 2 -19 159
-278 203 -335 20 -27 79 -103 97 -125 25 -32 250 -257 290 -290 17 -14 45 -37
64 -50 19 -14 42 -32 52 -40 39 -33 49 -41 74 -52 14 -6 25 -15 25 -20 0 -4 4
-8 9 -8 10 0 106 -61 131 -82 8 -7 16 -12 17 -11 5 4 122 -54 140 -68 9 -8 18
-13 20 -11 2 1 25 -7 51 -19 26 -11 52 -22 57 -23 6 -2 23 -8 38 -14 16 -7 34
-12 41 -12 6 0 16 -4 22 -8 5 -5 29 -14 54 -21 25 -8 56 -17 70 -22 25 -8 118
-32 175 -45 17 -3 47 -7 67 -8 21 0 38 -4 38 -7 0 -3 6 -6 13 -6 6 -1 39 -4
72 -9 74 -9 504 -16 517 -8 5 4 35 8 66 11 64 5 107 10 107 13 0 2 33 9 72 14
101 15 362 97 478 152 33 15 65 29 70 30 6 1 35 16 65 34 30 18 60 33 65 34 6
1 24 11 40 22 17 11 42 26 58 34 15 7 27 17 27 22 0 4 5 8 11 8 8 0 147 98
217 154 78 62 332 329 382 402 77 111 105 150 114 156 6 4 8 8 4 8 -4 0 8 25
27 55 19 30 35 58 35 63 0 5 6 15 14 21 39 33 20 46 -322 216 -183 91 -337
165 -343 165 -5 0 -9 4 -9 10 0 5 -3 9 -7 8 -5 -1 -179 83 -388 187 -209 104
-383 188 -387 187 -5 -1 -8 3 -8 9 0 5 -4 8 -9 5 -5 -4 -11 -3 -13 1 -2 7
-111 64 -128 68 -18 4 -266 132 -272 140 -4 6 -8 7 -8 4 0 -4 -41 14 -91 40
-90 45 -92 47 -112 101 -12 30 -23 57 -26 60 -4 3 -7 10 -8 15 -2 10 -125 311
-143 350 -5 11 -18 43 -29 70 -10 28 -33 80 -50 117 -17 37 -33 80 -37 95 -4
15 -10 33 -15 38 -4 6 -21 44 -37 85 -17 41 -41 98 -53 125 -13 28 -24 55 -25
60 -2 10 -46 117 -69 170 -26 59 -126 303 -130 315 0 3 -11 25 -23 49 -12 25
-22 53 -22 63 0 10 -4 18 -10 18 -5 0 -10 5 -10 12 0 6 -25 73 -56 147 -107
259 -126 301 -133 301 -3 0 -71 -33 -151 -73z"/>
</g>
</svg>
